# xmcd CD database file
#
# Track frame offsets:
#	150
#	69823
#	135055
#	189715
#
# Disc length: 3424 seconds
#
# Revision: 3
# Processed by: cddbd v1.5.2PL0 Copyright (c) Steve Scherf et al.
# Submitted via: CDex 1.51
#
DISCID=290d5e04
DTITLE=Mystery Of The Yeti - The Mystery Of The Yeti
DYEAR=1996
DGENRE=Psychedelic
TTITLE0=Part 1 - The Call - The Journey
TTITLE1=Part 2 - Tribal Gathering
TTITLE2=Part 3 - The Yeti Revelation - Sacred Communication
TTITLE3=Part 4 - A 'Welcome' To All Extra Terrestrials
EXTD=YEAR: 1996
EXTT0=
EXTT1=
EXTT2=
EXTT3=
PLAYORDER=
